<svg width="48" height="56" viewBox="0 0 48 56" fill="none" xmlns="http://www.w3.org/2000/svg">
<path d="M25.3308 0C25.7571 0.214453 26.2352 0.199865 26.6881 0.303444C31.7223 1.45595 35.482 5.78732 35.7514 10.87C35.9897 15.3648 34.1513 18.8777 30.4079 21.4278C30.097 21.6393 29.8306 22.6737 30.0245 22.9815C30.1237 23.1391 30.291 23.069 30.4301 23.0749C31.5906 23.1128 32.7555 22.999 33.913 23.1697C37.0614 23.6336 39.4075 25.2442 40.944 27.9883C41.1453 28.3472 41.3421 28.4639 41.7477 28.4333C42.5559 28.372 43.37 28.3574 44.1812 28.3501C45.0249 28.3414 45.3535 28.6711 45.355 29.5099C45.3594 31.971 45.3639 34.4321 45.349 36.8918C45.3476 37.2463 45.4186 37.4184 45.8005 37.5468C47.1357 37.9961 48.0134 39.277 48.0001 40.6498C47.9868 42.0357 47.112 43.2699 45.762 43.7266C45.4364 43.8374 45.3476 43.9746 45.349 44.297C45.3639 46.1191 45.3565 47.9427 45.3565 49.7648C45.3565 50.7525 45.0767 51.0501 44.0805 51.0486C38.1168 51.0471 32.4165 52.2565 26.9768 54.6681C26.0753 55.0678 25.1621 55.45 24.3346 55.9971C24.1126 55.9971 23.892 55.9971 23.67 55.9971C21.6643 54.8679 19.5166 54.0714 17.3259 53.3872C13.0185 52.0421 8.60007 51.4425 4.08397 51.5315C2.88204 51.5548 2.64965 51.3287 2.64817 50.1572C2.64817 48.2067 2.64225 46.2577 2.65409 44.3072C2.65557 43.9965 2.59044 43.8418 2.25444 43.7266C0.870449 43.2568 -0.010271 42.0051 9.04376e-05 40.6075C0.0104519 39.2274 0.886732 37.9961 2.24112 37.5322C2.56232 37.4228 2.65557 37.2857 2.65409 36.9618C2.63929 34.721 2.64669 32.4787 2.64669 30.2379C2.64669 29.1175 2.87908 28.8768 3.98776 28.8651C4.72638 28.8578 5.465 28.8432 6.20214 28.8709C6.50558 28.8826 6.6462 28.7965 6.78238 28.5223C8.55566 24.9408 11.4791 23.1405 15.5082 23.0807C16.2275 23.0705 16.9484 23.069 17.6678 23.0851C17.9327 23.0909 17.9934 23.0063 18.0156 22.7481C18.0734 22.0537 17.8913 21.6058 17.243 21.155C14.1523 19.0046 12.4693 16.0198 12.2384 12.2793C11.8654 6.23957 16.2794 1.17439 21.8597 0.195488C22.0581 0.160475 22.3038 0.208618 22.4518 0.00291773C23.411 0 24.3701 0 25.3308 0ZM23.069 44.1774C23.069 41.2071 23.0616 38.2369 23.0779 35.2681C23.0794 34.9077 22.9817 34.721 22.6442 34.5649C17.0417 31.9579 11.146 30.6537 4.95433 30.6274C4.61388 30.626 4.47918 30.6843 4.48362 31.0636C4.50583 32.8668 4.50287 34.6714 4.4851 36.4745C4.48214 36.8247 4.55763 36.8962 4.91436 36.829C6.68913 36.495 8.34399 37.5599 8.77769 39.2858C9.19659 40.9547 8.20189 42.6703 6.50114 43.1955C5.99195 43.3531 5.4798 43.515 4.95729 43.6099C4.59316 43.6755 4.48066 43.8141 4.4851 44.1788C4.50435 45.8726 4.50879 47.5678 4.48362 49.2615C4.4777 49.67 4.62572 49.724 4.98689 49.7225C11.1164 49.7108 16.981 50.9436 22.5599 53.4543C23.0631 53.6804 23.075 53.501 23.0735 53.0866C23.0646 50.1164 23.069 47.1476 23.069 44.1774ZM24.9326 53.5754C25.0451 53.5579 25.0836 53.5608 25.1147 53.5462C30.8135 50.8094 36.8349 49.3855 43.1658 49.2367C43.4884 49.2294 43.5121 49.0996 43.5106 48.8472C43.5032 47.2629 43.4988 45.6771 43.5136 44.0927C43.5166 43.7893 43.4026 43.6886 43.1213 43.6259C42.5648 43.5034 42.0127 43.3575 41.4694 43.1882C39.7776 42.6616 38.7947 40.927 39.2255 39.261C39.6666 37.5585 41.3288 36.4848 43.0503 36.8203C43.4144 36.8918 43.518 36.8422 43.5136 36.4541C43.4944 34.5226 43.4914 32.5925 43.5151 30.661C43.5195 30.251 43.4203 30.1533 43.0029 30.165C36.8157 30.3429 30.957 31.7945 25.4166 34.5182C25.054 34.6962 24.9193 34.8844 24.9193 35.2929C24.9341 41.2129 24.9297 47.1345 24.9297 53.0546C24.9326 53.215 24.9326 53.3755 24.9326 53.5754ZM27.0567 8.30678C25.8592 9.78169 24.3938 10.8744 22.659 11.6213C20.2803 12.6454 17.7862 12.9226 15.221 12.803C14.0146 12.7461 14.0117 12.7651 14.3136 13.9438C15.0197 16.6938 16.6154 18.7916 19.1051 20.2038C19.6143 20.4927 19.857 20.8443 19.8259 21.4264C19.7934 22.0259 19.8422 22.6299 19.8096 23.2295C19.7904 23.5884 19.9207 23.851 20.1456 24.1107C22.0507 26.3063 25.5499 26.4215 27.6355 24.3587C28.0159 23.9823 28.272 23.5971 28.2098 23.0224C28.1535 22.5001 28.2231 21.9647 28.1905 21.4395C28.1565 20.8618 28.3889 20.5043 28.901 20.2111C31.6276 18.6472 33.2558 16.3072 33.836 13.2523C33.9189 12.8161 34.0299 12.3595 33.2854 12.4324C33.0782 12.4529 32.8576 12.3464 32.6445 12.2939C30.2539 11.6986 28.3726 10.4061 27.0567 8.30678ZM8.57342 28.9453C8.67852 28.9716 8.71256 28.9862 8.74809 28.9891C13.951 29.4603 18.9186 30.7821 23.6241 33.036C23.9364 33.1863 24.1659 33.1264 24.4456 32.9849C27.0922 31.6501 29.8528 30.6099 32.7214 29.8455C34.8337 29.2823 36.9785 28.887 39.1588 28.6215C38.5061 27.167 36.6647 25.7183 34.8204 25.1873C33.1566 24.7088 31.4485 24.9437 29.7581 24.8912C29.5627 24.8853 29.4768 25.0341 29.3658 25.1552C26.3077 28.5121 21.7058 28.5062 18.6358 25.1348C18.4863 24.9699 18.3457 24.8824 18.1222 24.8868C16.9425 24.9043 15.7539 24.8357 14.5816 24.9408C11.8832 25.1844 9.92929 26.582 8.57342 28.9453ZM24.009 1.82358C18.957 1.83233 14.6437 5.59329 14.1123 10.4338C14.0724 10.7956 14.1464 10.9196 14.5164 10.9429C15.6399 11.013 16.7545 11.0699 17.8854 10.9605C21.4956 10.6103 24.4516 9.1996 26.364 6.02511C26.5904 5.65018 26.882 5.42406 27.3483 5.46783C27.7968 5.51013 28.0307 5.79461 28.1669 6.17392C29.0343 8.59563 30.7824 10.0034 33.2958 10.5403C33.9382 10.6774 33.9515 10.6701 33.836 10.0166C32.9968 5.26213 28.864 1.81629 24.009 1.82358ZM42.6151 38.5739C41.7211 38.5797 41.1246 39.0684 40.9795 39.7935C40.8478 40.4543 41.2296 41.1969 41.9061 41.4157C42.7439 41.6856 43.5995 41.9161 44.4639 42.0883C45.1907 42.2327 45.8568 41.7688 46.0862 41.0671C46.3038 40.4018 46.0388 39.6301 45.3831 39.35C44.455 38.9546 43.4559 38.7708 42.6151 38.5739ZM7.04437 40.0254C7.02809 39.0917 6.20362 38.4207 5.22372 38.6147C4.41553 38.7752 3.61622 38.9984 2.8332 39.2537C2.07533 39.5002 1.689 40.2734 1.88735 40.9999C2.09162 41.7513 2.85244 42.2502 3.63103 42.0795C4.43774 41.9015 5.23853 41.6842 6.02747 41.4376C6.66544 41.2407 7.05622 40.6527 7.04437 40.0254Z" fill="white"/>
</svg>
