<?xml version="1.0" encoding="utf-8"?>
<!-- Generator: Adobe Illustrator 19.0.0, SVG Export Plug-In . SVG Version: 6.00 Build 0)  -->
<svg version="1.1" id="Layer_1" xmlns="http://www.w3.org/2000/svg" xmlns:xlink="http://www.w3.org/1999/xlink" x="0px" y="0px"
	 viewBox="-278 378 54 38" style="enable-background:new -278 378 54 38;" xml:space="preserve">
<style type="text/css">
	.st0{fill:#D4E1F4;}
	.st1{fill:#FFC900;}
	.st2{fill:#6737B4;}
</style>
<path class="st0" d="M-266.4,385.1h41.1c0-2.8-2.3-5.1-5.1-5.1h-41.1c-2.8,0-5.1,2.3-5.1,5.1v24c0,2.8,2.3,5.1,5.1,5.1v-24
	C-271.6,387.4-269.3,385.1-266.4,385.1z"/>
<path class="st1" d="M-225.9,382.8l-25.1,14l-25.1-14c-0.6-0.3-1.4-0.1-1.7,0.5c-0.3,0.6-0.1,1.4,0.5,1.7l25.7,14.3
	c0.2,0.1,0.4,0.2,0.6,0.2c0.2,0,0.4-0.1,0.6-0.2l25.7-14.3c0.6-0.3,0.8-1.1,0.5-1.7C-224.5,382.7-225.3,382.5-225.9,382.8z"/>
<path class="st2" d="M-230.4,378.6h-41.1c-3.5,0-6.4,2.9-6.4,6.4v24c0,3.5,2.9,6.4,6.4,6.4h41.1c3.5,0,6.4-2.9,6.4-6.4v-24
	C-224,381.5-226.9,378.6-230.4,378.6z M-226.6,409c0,2.1-1.7,3.8-3.9,3.9h-41.1c-2.1,0-3.8-1.7-3.9-3.9v-24c0-2.1,1.7-3.8,3.9-3.9
	h41.1c2.1,0,3.8,1.7,3.9,3.9V409z"/>
</svg>
