<svg width="35" height="42" viewBox="0 0 35 42" fill="none" xmlns="http://www.w3.org/2000/svg">
<path d="M18.4407 0.760498C18.7427 0.917508 19.0813 0.906827 19.4021 0.982662C22.968 1.82646 25.6311 4.99764 25.822 8.71889C25.9908 12.0097 24.6886 14.5817 22.037 16.4487C21.8168 16.6036 21.6281 17.3609 21.7654 17.5862C21.8357 17.7016 21.9541 17.6503 22.0527 17.6546C22.8747 17.6824 23.6998 17.5991 24.5198 17.724C26.7499 18.0637 28.4117 19.2429 29.5 21.252C29.6426 21.5147 29.7821 21.6002 30.0693 21.5777C30.6418 21.5329 31.2185 21.5222 31.793 21.5168C32.3907 21.5104 32.6234 21.7518 32.6245 22.366C32.6276 24.1679 32.6308 25.9697 32.6203 27.7706C32.6192 28.0301 32.6696 28.1561 32.9401 28.2501C33.8858 28.5791 34.5075 29.5169 34.4981 30.522C34.4887 31.5367 33.869 32.4403 32.9128 32.7746C32.6821 32.8558 32.6192 32.9562 32.6203 33.1922C32.6308 34.5263 32.6255 35.8614 32.6255 37.1954C32.6255 37.9185 32.4274 38.1364 31.7217 38.1354C27.4974 38.1343 23.4597 39.0198 19.6066 40.7853C18.9681 41.078 18.3212 41.3578 17.7351 41.7584C17.5778 41.7584 17.4216 41.7584 17.2643 41.7584C15.8436 40.9317 14.3223 40.3485 12.7705 39.8475C9.71946 38.8627 6.58976 38.4238 3.39086 38.4889C2.53949 38.506 2.37488 38.3404 2.37384 37.4828C2.37384 36.0547 2.36964 34.6277 2.37803 33.1997C2.37908 32.9722 2.33294 32.859 2.09494 32.7746C1.11462 32.4307 0.490772 31.5142 0.498111 30.491C0.50545 29.4806 1.12615 28.5791 2.0855 28.2394C2.31302 28.1593 2.37908 28.0589 2.37803 27.8218C2.36754 26.1812 2.37279 24.5396 2.37279 22.899C2.37279 22.0787 2.5374 21.9024 3.32271 21.8939C3.8459 21.8885 4.36909 21.8779 4.89123 21.8981C5.10617 21.9067 5.20577 21.8437 5.30223 21.6429C6.55831 19.0207 8.62905 17.7027 11.483 17.6589C11.9926 17.6514 12.5032 17.6503 13.0127 17.6621C13.2004 17.6663 13.2434 17.6044 13.2591 17.4153C13.3 16.9069 13.171 16.579 12.7118 16.249C10.5226 14.6746 9.33048 12.4893 9.16691 9.75068C8.9027 5.32875 12.0293 1.62032 15.982 0.903623C16.1225 0.877989 16.2966 0.913236 16.4014 0.762634C17.0808 0.760498 17.7602 0.760498 18.4407 0.760498ZM16.8386 33.1046C16.8386 30.93 16.8334 28.7553 16.8449 26.5818C16.846 26.3179 16.7768 26.1812 16.5377 26.0669C12.5692 24.1582 8.39314 23.2034 4.00736 23.1841C3.76621 23.1831 3.6708 23.2258 3.67395 23.5035C3.68967 24.8237 3.68758 26.1449 3.67499 27.4651C3.6729 27.7214 3.72637 27.7738 3.97905 27.7246C5.23618 27.48 6.40837 28.2597 6.71558 29.5233C7.0123 30.7452 6.30772 32.0013 5.10302 32.3858C4.74234 32.5012 4.37957 32.6197 4.00946 32.6891C3.75153 32.7372 3.67185 32.8387 3.67499 33.1057C3.68862 34.3458 3.69177 35.5869 3.67395 36.827C3.66975 37.126 3.7746 37.1655 4.03043 37.1645C8.37217 37.1559 12.5262 38.0585 16.4779 39.8967C16.8344 40.0622 16.8428 39.9308 16.8418 39.6275C16.8355 37.4529 16.8386 35.2793 16.8386 33.1046ZM18.1586 39.9853C18.2383 39.9725 18.2656 39.9746 18.2876 39.964C22.3242 37.9602 26.5894 36.9177 31.0738 36.8088C31.3024 36.8035 31.3191 36.7084 31.3181 36.5236C31.3128 35.3637 31.3097 34.2026 31.3202 33.0427C31.3223 32.8205 31.2415 32.7468 31.0423 32.7009C30.6481 32.6112 30.257 32.5044 29.8722 32.3805C28.6738 31.9949 27.9776 30.7249 28.2827 29.5051C28.5952 28.2587 29.7726 27.4726 30.992 27.7182C31.2499 27.7706 31.3233 27.7342 31.3202 27.4501C31.3065 26.036 31.3044 24.6229 31.3212 23.2087C31.3244 22.9086 31.2541 22.837 30.9585 22.8456C26.5758 22.9759 22.426 24.0386 18.5015 26.0328C18.2446 26.1631 18.1492 26.3008 18.1492 26.5999C18.1597 30.9343 18.1566 35.2697 18.1566 39.604C18.1586 39.7215 18.1586 39.839 18.1586 39.9853ZM19.6632 6.84225C18.815 7.92209 17.777 8.7221 16.5482 9.26896C14.8633 10.0188 13.0966 10.2217 11.2796 10.1341C10.4251 10.0925 10.423 10.1064 10.6369 10.9694C11.137 12.9827 12.2673 14.5187 14.0308 15.5526C14.3915 15.7641 14.5634 16.0215 14.5414 16.4476C14.5183 16.8866 14.5529 17.3288 14.5299 17.7678C14.5162 18.0306 14.6085 18.2228 14.7679 18.4129C16.1173 20.0204 18.5959 20.1048 20.0732 18.5945C20.3426 18.319 20.524 18.037 20.48 17.6161C20.4401 17.2338 20.4894 16.8418 20.4663 16.4573C20.4422 16.0343 20.6068 15.7726 20.9696 15.5579C22.9009 14.4129 24.0542 12.6997 24.4652 10.4631C24.524 10.1437 24.6026 9.80942 24.0752 9.86283C23.9284 9.87778 23.7722 9.79981 23.6212 9.76136C21.9279 9.32557 20.5953 8.37924 19.6632 6.84225ZM6.57089 21.9526C6.64533 21.9718 6.66944 21.9825 6.69461 21.9847C10.38 22.3297 13.8987 23.2974 17.2318 24.9476C17.453 25.0576 17.6155 25.0138 17.8137 24.9102C19.6884 23.9329 21.6438 23.1713 23.6757 22.6116C25.1719 22.1994 26.6912 21.9099 28.2356 21.7155C27.7732 20.6506 26.4689 19.59 25.1625 19.2012C23.984 18.8509 22.774 19.0228 21.5767 18.9844C21.4383 18.9801 21.3775 19.0891 21.2988 19.1777C19.1327 21.6354 15.873 21.6311 13.6984 19.1628C13.5925 19.0421 13.4929 18.978 13.3346 18.9812C12.499 18.994 11.657 18.9438 10.8267 19.0207C8.91528 19.1991 7.53129 20.2223 6.57089 21.9526ZM17.5044 2.09562C13.926 2.10203 10.8707 4.85558 10.4943 8.39953C10.466 8.66442 10.5184 8.75521 10.7805 8.7723C11.5763 8.82357 12.3658 8.86522 13.1669 8.78512C15.7241 8.52877 17.8179 7.49592 19.1725 5.17174C19.3329 4.89724 19.5395 4.73169 19.8698 4.76373C20.1875 4.7947 20.3531 5.00298 20.4496 5.28069C21.064 7.05373 22.3022 8.08444 24.0825 8.4775C24.5376 8.5779 24.547 8.57256 24.4652 8.09406C23.8708 4.61313 20.9434 2.09028 17.5044 2.09562ZM30.6838 29.0021C30.0505 29.0063 29.6279 29.3642 29.5252 29.895C29.4319 30.3788 29.7024 30.9225 30.1815 31.0827C30.775 31.2803 31.381 31.4491 31.9933 31.5751C32.5081 31.6809 32.9799 31.3412 33.1424 30.8274C33.2966 30.3404 33.1089 29.7754 32.6444 29.5703C31.987 29.2808 31.2793 29.1463 30.6838 29.0021ZM5.48781 30.0648C5.47628 29.3812 4.89228 28.8899 4.19818 29.032C3.62572 29.1495 3.05954 29.3129 2.50489 29.4998C1.96807 29.6803 1.69442 30.2464 1.83492 30.7783C1.97961 31.3284 2.51853 31.6937 3.07002 31.5687C3.64144 31.4384 4.20867 31.2793 4.76751 31.0987C5.2194 30.9546 5.4962 30.5241 5.48781 30.0648Z" fill="white"/>
</svg>
