<svg width="35" height="42" viewBox="0 0 35 42" fill="none" xmlns="http://www.w3.org/2000/svg">
<path d="M18.678 0.777832C18.98 0.934842 19.3186 0.924161 19.6394 0.999996C23.2053 1.84379 25.8684 5.01498 26.0593 8.73623C26.2281 12.027 24.9259 14.599 22.2743 16.4661C22.0541 16.6209 21.8654 17.3782 22.0027 17.6036C22.073 17.7189 22.1914 17.6677 22.29 17.6719C23.112 17.6997 23.9372 17.6164 24.7571 17.7414C26.9872 18.081 28.649 19.2602 29.7373 21.2693C29.8799 21.532 30.0194 21.6175 30.3066 21.5951C30.8791 21.5502 31.4558 21.5395 32.0303 21.5342C32.628 21.5278 32.8607 21.7692 32.8618 22.3833C32.8649 24.1852 32.8681 25.9871 32.8576 27.7879C32.8565 28.0474 32.9069 28.1735 33.1774 28.2675C34.1231 28.5964 34.7449 29.5342 34.7354 30.5393C34.726 31.554 34.1063 32.4576 33.1501 32.7919C32.9195 32.8731 32.8565 32.9735 32.8576 33.2095C32.8681 34.5436 32.8628 35.8787 32.8628 37.2128C32.8628 37.9359 32.6647 38.1538 31.959 38.1527C27.7347 38.1516 23.6971 39.0371 19.8439 40.8027C19.2054 41.0953 18.5585 41.3752 17.9724 41.7757C17.8151 41.7757 17.6589 41.7757 17.5016 41.7757C16.0809 40.949 14.5596 40.3658 13.0078 39.8649C9.95677 38.8801 6.82706 38.4411 3.62816 38.5062C2.7768 38.5233 2.61219 38.3578 2.61114 37.5001C2.61114 36.0721 2.60695 34.6451 2.61533 33.217C2.61638 32.9895 2.57025 32.8763 2.33225 32.7919C1.35192 32.448 0.728076 31.5316 0.735416 30.5083C0.742755 29.4979 1.36345 28.5964 2.32281 28.2568C2.55033 28.1767 2.61638 28.0763 2.61533 27.8392C2.60485 26.1986 2.61009 24.5569 2.61009 22.9163C2.61009 22.096 2.7747 21.9198 3.56001 21.9112C4.0832 21.9059 4.60639 21.8952 5.12853 21.9155C5.34347 21.924 5.44308 21.861 5.53954 21.6602C6.79561 19.038 8.86635 17.72 11.7203 17.6762C12.2299 17.6687 12.7405 17.6677 13.25 17.6794C13.4377 17.6837 13.4807 17.6217 13.4964 17.4327C13.5373 16.9243 13.4084 16.5964 12.9491 16.2663C10.7599 14.6919 9.56778 12.5066 9.40422 9.76801C9.14 5.34609 12.2666 1.63765 16.2193 0.920957C16.3598 0.895323 16.5339 0.93057 16.6387 0.779968C17.3181 0.777832 17.9975 0.777832 18.678 0.777832ZM17.0759 33.122C17.0759 30.9473 17.0707 28.7727 17.0822 26.5991C17.0833 26.3353 17.0141 26.1986 16.775 26.0843C12.8065 24.1756 8.63044 23.2207 4.24467 23.2015C4.00352 23.2004 3.90811 23.2431 3.91125 23.5208C3.92698 24.841 3.92488 26.1622 3.9123 27.4824C3.9102 27.7388 3.96368 27.7911 4.21636 27.742C5.47348 27.4974 6.64568 28.2771 6.95288 29.5406C7.2496 30.7625 6.54502 32.0186 5.34032 32.4031C4.97965 32.5185 4.61688 32.637 4.24676 32.7065C3.98884 32.7545 3.90915 32.856 3.9123 33.123C3.92593 34.3631 3.92908 35.6042 3.91125 36.8443C3.90706 37.1434 4.0119 37.1829 4.26773 37.1818C8.60947 37.1733 12.7635 38.0758 16.7152 39.914C17.0717 40.0796 17.0801 39.9482 17.0791 39.6448C17.0728 37.4702 17.0759 35.2966 17.0759 33.122ZM18.396 40.0026C18.4756 39.9898 18.5029 39.992 18.5249 39.9813C22.5616 37.9775 26.8268 36.9351 31.3111 36.8261C31.5397 36.8208 31.5564 36.7257 31.5554 36.5409C31.5501 35.381 31.547 34.22 31.5575 33.06C31.5596 32.8378 31.4788 32.7642 31.2796 32.7182C30.8854 32.6285 30.4943 32.5217 30.1095 32.3978C28.9111 32.0122 28.2149 30.7422 28.52 29.5225C28.8325 28.276 30.0099 27.4899 31.2293 27.7355C31.4872 27.7879 31.5606 27.7516 31.5575 27.4675C31.5438 26.0533 31.5418 24.6402 31.5585 23.226C31.5617 22.9259 31.4914 22.8543 31.1958 22.8629C26.8131 22.9932 22.6633 24.056 18.7388 26.0501C18.4819 26.1804 18.3865 26.3182 18.3865 26.6173C18.397 30.9516 18.3939 35.287 18.3939 39.6213C18.396 39.7388 18.396 39.8563 18.396 40.0026ZM19.9005 6.85958C19.0523 7.93943 18.0143 8.73943 16.7855 9.2863C15.1006 10.0361 13.3339 10.239 11.5169 10.1515C10.6624 10.1098 10.6603 10.1237 10.8742 10.9867C11.3743 13.0001 12.5046 14.536 14.2681 15.5699C14.6288 15.7814 14.8007 16.0388 14.7787 16.465C14.7556 16.904 14.7902 17.3462 14.7672 17.7852C14.7535 18.0479 14.8458 18.2402 15.0052 18.4303C16.3546 20.0378 18.8332 20.1221 20.3105 18.6119C20.5799 18.3363 20.7613 18.0543 20.7173 17.6335C20.6774 17.2511 20.7267 16.8591 20.7037 16.4746C20.6795 16.0516 20.8441 15.7899 21.2069 15.5753C23.1382 14.4303 24.2915 12.717 24.7025 10.4804C24.7613 10.1611 24.8399 9.82676 24.3125 9.88016C24.1657 9.89511 24.0095 9.81714 23.8585 9.77869C22.1652 9.34291 20.8326 8.39657 19.9005 6.85958ZM6.80819 21.97C6.88263 21.9892 6.90675 21.9999 6.93191 22.002C10.6173 22.347 14.136 23.3147 17.4691 24.9649C17.6903 25.0749 17.8528 25.0311 18.051 24.9275C19.9257 23.9502 21.8811 23.1887 23.913 22.629C25.4092 22.2167 26.9285 21.9272 28.4729 21.7328C28.0105 20.6679 26.7062 19.6073 25.3998 19.2185C24.2213 18.8682 23.0113 19.0402 21.814 19.0017C21.6756 18.9974 21.6148 19.1064 21.5361 19.195C19.37 21.6527 16.1103 21.6485 13.9357 19.1801C13.8298 19.0594 13.7302 18.9953 13.5719 18.9985C12.7363 19.0113 11.8944 18.9611 11.064 19.038C9.15259 19.2164 7.7686 20.2396 6.80819 21.97ZM17.7417 2.11295C14.1633 2.11936 11.108 4.87292 10.7316 8.41687C10.7033 8.68175 10.7557 8.77254 11.0178 8.78963C11.8136 8.8409 12.6031 8.88256 13.4042 8.80245C15.9614 8.54611 18.0552 7.51326 19.4098 5.18908C19.5702 4.91457 19.7768 4.74902 20.1071 4.78106C20.4248 4.81204 20.5904 5.02032 20.6869 5.29802C21.3013 7.07106 22.5395 8.10178 24.3198 8.49484C24.7749 8.59524 24.7843 8.5899 24.7025 8.11139C24.1081 4.63046 21.1807 2.10761 17.7417 2.11295ZM30.9211 29.0194C30.2878 29.0237 29.8652 29.3815 29.7625 29.9123C29.6692 30.3962 29.9397 30.9398 30.4188 31.1001C31.0123 31.2977 31.6183 31.4664 32.2306 31.5924C32.7454 31.6982 33.2172 31.3585 33.3797 30.8448C33.5339 30.3577 33.3462 29.7927 32.8817 29.5876C32.2243 29.2982 31.5166 29.1636 30.9211 29.0194ZM5.72512 30.0822C5.71358 29.3986 5.12958 28.9073 4.43549 29.0493C3.86302 29.1668 3.29684 29.3302 2.7422 29.5171C2.20538 29.6976 1.93173 30.2637 2.07222 30.7956C2.21691 31.3457 2.75583 31.711 3.30733 31.586C3.87875 31.4557 4.44597 31.2966 5.00481 31.1161C5.45671 30.9719 5.7335 30.5414 5.72512 30.0822Z" fill="white"/>
</svg>
