<svg width="13" height="13" viewBox="0 0 13 13" fill="none" xmlns="http://www.w3.org/2000/svg">
<path d="M6.1377 3.51514C5.57259 3.51514 5.04395 3.66097 4.55176 3.95264C4.0778 4.22607 3.69499 4.60889 3.40332 5.10107C3.12988 5.57503 2.99316 6.09456 2.99316 6.65967C2.99316 7.22477 3.12988 7.75342 3.40332 8.24561C3.69499 8.71956 4.0778 9.10238 4.55176 9.39404C5.04395 9.66748 5.57259 9.8042 6.1377 9.8042C6.7028 9.8042 7.22233 9.66748 7.69629 9.39404C8.18848 9.10238 8.57129 8.71956 8.84473 8.24561C9.13639 7.75342 9.28223 7.22477 9.28223 6.65967C9.28223 6.09456 9.13639 5.57503 8.84473 5.10107C8.57129 4.60889 8.18848 4.22607 7.69629 3.95264C7.22233 3.66097 6.7028 3.51514 6.1377 3.51514ZM6.1377 8.71045C5.57259 8.71045 5.08952 8.50993 4.68848 8.10889C4.28743 7.70785 4.08691 7.22477 4.08691 6.65967C4.08691 6.09456 4.28743 5.61149 4.68848 5.21045C5.08952 4.80941 5.57259 4.60889 6.1377 4.60889C6.7028 4.60889 7.18587 4.80941 7.58691 5.21045C7.98796 5.61149 8.18848 6.09456 8.18848 6.65967C8.18848 7.22477 7.98796 7.70785 7.58691 8.10889C7.18587 8.50993 6.7028 8.71045 6.1377 8.71045ZM10.1572 3.37842C10.139 3.57894 10.057 3.75212 9.91113 3.89795C9.78353 4.04378 9.61947 4.1167 9.41895 4.1167C9.21842 4.1167 9.04525 4.04378 8.89941 3.89795C8.75358 3.75212 8.68066 3.57894 8.68066 3.37842C8.68066 3.1779 8.75358 3.00472 8.89941 2.85889C9.04525 2.71305 9.21842 2.64014 9.41895 2.64014C9.61947 2.64014 9.79264 2.71305 9.93848 2.85889C10.0843 3.00472 10.1572 3.1779 10.1572 3.37842ZM12.2354 4.1167C12.1989 3.58805 12.1169 3.13232 11.9893 2.74951C11.8252 2.29378 11.57 1.90186 11.2236 1.57373C10.8955 1.22738 10.5036 0.972168 10.0479 0.808105C9.66504 0.680501 9.20931 0.607585 8.68066 0.589355C8.17025 0.552897 7.32259 0.534668 6.1377 0.534668C4.9528 0.534668 4.09603 0.552897 3.56738 0.589355C3.05697 0.607585 2.61035 0.680501 2.22754 0.808105C1.77181 0.972168 1.37077 1.22738 1.02441 1.57373C0.696289 1.90186 0.450195 2.29378 0.286133 2.74951C0.158529 3.13232 0.0764974 3.58805 0.0400391 4.1167C0.0218099 4.62712 0.0126953 5.47477 0.0126953 6.65967C0.0126953 7.84456 0.0218099 8.70133 0.0400391 9.22998C0.0764974 9.7404 0.158529 10.187 0.286133 10.5698C0.450195 11.0256 0.696289 11.4266 1.02441 11.7729C1.37077 12.1011 1.77181 12.3381 2.22754 12.4839C2.61035 12.6297 3.05697 12.7118 3.56738 12.73C4.09603 12.7664 4.9528 12.7847 6.1377 12.7847C7.32259 12.7847 8.17025 12.7664 8.68066 12.73C9.20931 12.7118 9.66504 12.6388 10.0479 12.5112C10.5036 12.3472 10.8955 12.1011 11.2236 11.7729C11.57 11.4266 11.8252 11.0256 11.9893 10.5698C12.1169 10.187 12.1898 9.7404 12.208 9.22998C12.2445 8.70133 12.2627 7.84456 12.2627 6.65967C12.2627 5.47477 12.2536 4.62712 12.2354 4.1167ZM10.9229 10.269C10.7041 10.8159 10.3122 11.2078 9.74707 11.4448C9.4554 11.5542 8.96322 11.6271 8.27051 11.6636C7.8877 11.6818 7.32259 11.6909 6.5752 11.6909H5.7002C4.97103 11.6909 4.40592 11.6818 4.00488 11.6636C3.3304 11.6271 2.83822 11.5542 2.52832 11.4448C1.98145 11.2261 1.58952 10.8341 1.35254 10.269C1.24316 9.95915 1.17025 9.46696 1.13379 8.79248C1.11556 8.39144 1.10645 7.82633 1.10645 7.09717V6.22217C1.10645 5.493 1.11556 4.9279 1.13379 4.52686C1.17025 3.83415 1.24316 3.34196 1.35254 3.05029C1.57129 2.48519 1.96322 2.09326 2.52832 1.87451C2.83822 1.76514 3.3304 1.69222 4.00488 1.65576C4.40592 1.63753 4.97103 1.62842 5.7002 1.62842H6.5752C7.30436 1.62842 7.86947 1.63753 8.27051 1.65576C8.96322 1.69222 9.4554 1.76514 9.74707 1.87451C10.3122 2.09326 10.7041 2.48519 10.9229 3.05029C11.0322 3.34196 11.1051 3.83415 11.1416 4.52686C11.1598 4.90967 11.1689 5.47477 11.1689 6.22217V7.09717C11.1689 7.82633 11.1598 8.39144 11.1416 8.79248C11.1051 9.46696 11.0322 9.95915 10.9229 10.269Z" fill="#CAD1D8"/>
</svg>
