<svg width="13" height="13" viewBox="0 0 13 13" fill="none" xmlns="http://www.w3.org/2000/svg">
<path d="M2.74707 12.9097H0.204102V4.73389H2.74707V12.9097ZM1.48926 3.61279C1.08822 3.61279 0.741862 3.46696 0.450195 3.17529C0.158529 2.88363 0.0126953 2.53727 0.0126953 2.13623C0.0126953 1.73519 0.158529 1.38883 0.450195 1.09717C0.741862 0.805501 1.08822 0.659668 1.48926 0.659668C1.8903 0.659668 2.23665 0.805501 2.52832 1.09717C2.81999 1.38883 2.96582 1.73519 2.96582 2.13623C2.96582 2.53727 2.81999 2.88363 2.52832 3.17529C2.23665 3.46696 1.8903 3.61279 1.48926 3.61279ZM12.2627 12.9097H9.71973V8.91748C9.71973 8.26123 9.66504 7.78727 9.55566 7.49561C9.35514 7.00342 8.96322 6.75732 8.37988 6.75732C7.79655 6.75732 7.38639 6.97607 7.14941 7.41357C6.96712 7.7417 6.87598 8.22477 6.87598 8.86279V12.9097H4.36035V4.73389H6.79395V5.85498H6.82129C7.00358 5.4904 7.29525 5.18962 7.69629 4.95264C8.13379 4.66097 8.64421 4.51514 9.22754 4.51514C10.4124 4.51514 11.2419 4.88883 11.7158 5.63623C12.0804 6.23779 12.2627 7.16748 12.2627 8.42529V12.9097Z" fill="#CAD1D8"/>
</svg>
