<?xml version="1.0" encoding="utf-8"?>
<!-- Generator: Adobe Illustrator 19.0.0, SVG Export Plug-In . SVG Version: 6.00 Build 0)  -->
<svg version="1.1" id="Layer_1" xmlns="http://www.w3.org/2000/svg" xmlns:xlink="http://www.w3.org/1999/xlink" x="0px" y="0px"
	 viewBox="-284 371 43 51" style="enable-background:new -284 371 43 51;" xml:space="preserve">
<style type="text/css">
	.st0{fill:#D4E1F4;}
	.st1{fill:#6737B4;}
	.st2{fill:#FFC900;}
</style>
<path class="st0" d="M-271.3,403.2c-7.5-7.8-7.5-20.5,0-28.4c-1.9,1-3.6,2.3-5.1,3.8l0,0c-7.5,7.8-7.5,20.5,0,28.4l13.6,14.2
	l4.4-4.6L-271.3,403.2z"/>
<path class="st1" d="M-262.5,422c-0.3,0-0.7-0.1-0.9-0.4l-13.6-14.2c-3.9-4-6-9.4-6-15.1c0-5.7,2.1-11,6-15.1l0,0
	c3.9-4,9-6.3,14.5-6.3c5.5,0,10.7,2.2,14.5,6.3l0,0c3.9,4,6,9.4,6,15.1c0,5.7-2.1,11-6,15.1l-13.6,14.2
	C-261.8,421.9-262.1,422-262.5,422z M-275.2,379c-7,7.3-7,19.3,0,26.6l12.7,13.2l12.7-13.2c7-7.3,7-19.3,0-26.6l0,0
	c-3.4-3.5-7.9-5.5-12.7-5.5C-267.3,373.5-271.8,375.5-275.2,379L-275.2,379z"/>
<path class="st2" d="M-262.5,401.5c-6.3,0-11.5-5.1-11.5-11.5c0-6.3,5.1-11.5,11.5-11.5c6.3,0,11.5,5.1,11.5,11.5
	C-251,396.3-256.2,401.5-262.5,401.5z M-262.5,381.1c-4.9,0-8.9,4-8.9,8.9c0,4.9,4,8.9,8.9,8.9c4.9,0,8.9-4,8.9-8.9
	C-253.6,385.1-257.6,381.1-262.5,381.1z"/>
</svg>
