<?xml version="1.0" encoding="utf-8"?>
<!-- Generator: Adobe Illustrator 19.0.0, SVG Export Plug-In . SVG Version: 6.00 Build 0)  -->
<svg version="1.1" id="Layer_1" xmlns="http://www.w3.org/2000/svg" xmlns:xlink="http://www.w3.org/1999/xlink" x="0px" y="0px"
	 viewBox="-290 371 31 51" style="enable-background:new -290 371 31 51;" xml:space="preserve">
<style type="text/css">
	.st0{fill:#D4E1F4;}
	.st1{fill:#6737B4;}
	.st2{fill:#FFC900;}
</style>
<path class="st0" d="M-283.8,420.4v-40.3c0-2.3,1.8-4.1,4.1-4.1h17.6c-0.1-2.2-1.9-3.8-4.1-3.8h-18.6c-2.3,0-4.1,1.8-4.1,4.1v40.3
	c0,2.3,1.8,4.1,4.1,4.1h1C-283.8,420.6-283.8,420.5-283.8,420.4z"/>
<path class="st1" d="M-259.8,376.4c0-3-2.4-5.4-5.4-5.4h-18.6c-3,0-5.4,2.4-5.4,5.4v40.3c0,3,2.4,5.4,5.4,5.4h18.6
	c3,0,5.4-2.4,5.4-5.4V376.4z M-286.6,380.2h24.2V410h-24.2V380.2z M-283.8,373.5h18.6c1.5,0,2.8,1.2,2.8,2.7v0v1.3h-24.2v-1.3
	C-286.6,374.8-285.4,373.6-283.8,373.5L-283.8,373.5z M-265.2,419.5h-18.6c-1.6,0-2.8-1.3-2.8-2.9v-4h24.2v4
	C-262.4,418.1-263.6,419.5-265.2,419.5z"/>
<path class="st2" d="M-271,417.3h-5c-0.7,0-1.3-0.6-1.3-1.3c0-0.7,0.6-1.3,1.3-1.3h5c0.7,0,1.3,0.6,1.3,1.3
	C-269.7,416.7-270.3,417.3-271,417.3z"/>
</svg>
