<svg width="15" height="13" viewBox="0 0 15 13" fill="none" xmlns="http://www.w3.org/2000/svg">
<path d="M12.5635 3.81592C12.5817 3.88883 12.5908 4.00732 12.5908 4.17139C12.5908 5.48389 12.2718 6.75081 11.6338 7.97217C10.9775 9.26644 10.057 10.2964 8.87207 11.062C7.5778 11.9188 6.09212 12.3472 4.41504 12.3472C2.81087 12.3472 1.34342 11.9188 0.0126953 11.062C0.213216 11.0802 0.441081 11.0894 0.696289 11.0894C2.02702 11.0894 3.22103 10.6792 4.27832 9.85889C3.6403 9.85889 3.0752 9.6766 2.58301 9.31201C2.10905 8.9292 1.78092 8.45524 1.59863 7.89014C1.78092 7.90837 1.9541 7.91748 2.11816 7.91748C2.37337 7.91748 2.62858 7.89014 2.88379 7.83545C2.22754 7.68962 1.68066 7.35238 1.24316 6.82373C0.805664 6.29508 0.586914 5.69352 0.586914 5.01904V4.96436C0.987956 5.20133 1.41634 5.32894 1.87207 5.34717C1.48926 5.07373 1.17936 4.72738 0.942383 4.30811C0.705404 3.88883 0.586914 3.43311 0.586914 2.94092C0.586914 2.4305 0.723633 1.94743 0.99707 1.4917C1.70801 2.38493 2.57389 3.09587 3.59473 3.62451C4.63379 4.15316 5.73665 4.44482 6.90332 4.49951C6.86686 4.28076 6.84863 4.06201 6.84863 3.84326C6.84863 3.33285 6.97624 2.85889 7.23145 2.42139C7.48665 1.96566 7.83301 1.61019 8.27051 1.35498C8.70801 1.09977 9.18197 0.972168 9.69238 0.972168C10.1117 0.972168 10.4945 1.0542 10.8408 1.21826C11.2054 1.38232 11.5244 1.60107 11.7979 1.87451C12.4541 1.74691 13.0648 1.51904 13.6299 1.19092C13.4111 1.8654 12.9919 2.39404 12.3721 2.77686C12.9189 2.70394 13.4658 2.54899 14.0127 2.31201C13.6117 2.89535 13.1286 3.39665 12.5635 3.81592Z" fill="#CAD1D8"/>
</svg>
